<svg id="Layer_1" data-name="Layer 1" xmlns="http://www.w3.org/2000/svg" viewBox="0 0 174.94 29.32"><path d="M9.88,17.5a10.46,10.46,0,0,1-7.06-2.38A8.34,8.34,0,0,1,0,8.76C0,3.61,4,0,10.31,0a15,15,0,0,1,6.36,1.39v4A11.61,11.61,0,0,0,10.6,3.54c-3.67,0-5.91,2-5.91,5.22S6.82,14,10.25,14a12.09,12.09,0,0,0,6.58-2.13v4A14.48,14.48,0,0,1,9.88,17.5" style="fill:#1d3a66"/><polygon points="21.12 0.3 25.68 0.3 25.68 13.93 33.51 13.93 33.51 17.2 21.12 17.2 21.12 0.3" style="fill:#1d3a66"/><rect x="37.29" y="0.3" width="4.69" height="16.9" style="fill:#1d3a66"/><polygon points="44.96 0.3 49.84 0.3 54.34 10.12 59.13 0.3 64.06 0.3 55.19 17.35 53.22 17.35 44.96 0.3" style="fill:#1d3a66"/><polygon points="66.91 0.3 79.08 0.3 79.08 3.42 71.46 3.42 71.46 6.86 78.73 6.86 78.73 10 71.46 10 71.46 14.03 79.29 14.03 79.29 17.2 66.91 17.2 66.91 0.3" style="fill:#1d3a66"/><polygon points="92.66 0.3 96.69 0.3 102.52 7.1 108.38 0.3 112.4 0.3 112.4 17.2 107.92 17.2 107.92 6.73 102.52 12.92 97.17 6.73 97.17 17.2 92.66 17.2 92.66 0.3" style="fill:#1d3a66"/><path d="M123.19.3h5.25l7.08,16.9H130.7l-1.31-3.29h-7.83L120.1,17.2h-4.85ZM128.25,11l-2.56-6.43L122.87,11Z" style="fill:#1d3a66"/><path d="M138.48.3h6.71c4.87,0,7.24,1.51,7.24,4.9,0,1.85-1,3.17-3.17,4.08a3.9,3.9,0,0,1,2.16,2.13l2.91,5.79h-5.15l-2.31-4.87a3.07,3.07,0,0,0-3.31-2l-.53,0V17.2h-4.55Zm9.24,5c0-1.24-.85-2-2.5-2H143V7.23h2.19c1.7,0,2.5-.65,2.5-2" style="fill:#1d3a66"/><polygon points="168.23 0.3 162.05 7.82 162.05 0.3 157.5 0.3 157.5 17.2 162.05 17.2 162.05 9.26 169.03 17.2 174.94 17.2 166.9 8.12 173.34 0.3 168.23 0.3" style="fill:#1d3a66"/><path d="M50.37,25.06v4.16H53v-.63H51.19V27.37h1.63v-.61H51.19v-1.1h1.72v-.6Zm7.28.11a3.71,3.71,0,0,0-1-.2c-1,0-1.53.51-1.53,1.18a1.08,1.08,0,0,0,.3.75,2.76,2.76,0,0,0,.78.53c.45.24.74.38.74.71s-.27.54-.75.54a2.55,2.55,0,0,1-1-.32l-.08.71a4.27,4.27,0,0,0,1.1.25c1,0,1.6-.58,1.6-1.31s-.39-.93-1.08-1.28c-.49-.24-.77-.36-.77-.66s.25-.46.7-.46a2.25,2.25,0,0,1,.92.21Zm2-.11v.64h1.1v3.52h.82V25.7h1.11v-.64Zm5.89,0L63.9,29.22h.81l.36-1h1.81l.35,1h.88L66.5,25.06Zm.48.69.68,1.88H65.3Zm3.92-.69v4.16h1.35c1.06,0,1.61-.41,1.61-1.16a1,1,0,0,0-.89-1,.92.92,0,0,0,.77-.91c0-.7-.49-1.08-1.46-1.08Zm.81.59h.44c.51,0,.77.19.77.57s-.27.57-.82.57h-.39Zm0,1.72h.5c.54,0,.82.22.82.61s-.3.64-.88.64h-.44ZM75,25.06v4.16h2.49v-.63H75.86V25.06Zm4.46,4.16h.83V25.06H79.5Zm5.62-4a3.63,3.63,0,0,0-1-.2c-1,0-1.52.51-1.52,1.18a1.07,1.07,0,0,0,.29.75,2.76,2.76,0,0,0,.78.53c.45.24.74.38.74.71s-.27.54-.75.54a2.51,2.51,0,0,1-1-.32l-.08.71a4.12,4.12,0,0,0,1.09.25c1,0,1.6-.58,1.6-1.31s-.38-.93-1.08-1.28c-.49-.24-.77-.36-.77-.66s.25-.46.71-.46a2.24,2.24,0,0,1,.91.21Zm2.37-.11v4.16h.82V27.38h1.62v1.84h.82V25.06h-.82v1.68H88.31V25.06Zm5.63,0v4.16h2.6v-.63H93.94V27.37h1.63v-.61H93.94v-1.1h1.72v-.6Zm4.85,0v4.16H99.1a3,3,0,0,0,1.58-.32,1.94,1.94,0,0,0,.9-1.77,2,2,0,0,0-.89-1.77,2.87,2.87,0,0,0-1.52-.3Zm.83.62h.45a1.31,1.31,0,0,1,1.48,1.44,1.33,1.33,0,0,1-1.45,1.46H98.8Zm9.41-.62-1.21.88.39.53.72-.56v3.31h.76V25.06Zm5.06.49a.69.69,0,0,1,.65.75c0,.51-.28.82-.69.82s-.66-.31-.66-.8a.7.7,0,0,1,.7-.77M112,29.12a2.65,2.65,0,0,0,.91.16c1.17,0,1.86-.82,1.86-2.28s-.56-2-1.52-2a1.4,1.4,0,0,0-1.42,1.43,1.24,1.24,0,0,0,1.25,1.31,1.09,1.09,0,0,0,.94-.48c0,.95-.43,1.45-1.17,1.45a1.55,1.55,0,0,1-.78-.19Zm7.63-4a2.93,2.93,0,0,0-.9-.15c-1.17,0-1.86.81-1.86,2.28,0,1.31.56,2,1.52,2a1.39,1.39,0,0,0,1.42-1.42,1.24,1.24,0,0,0-1.25-1.32,1.1,1.1,0,0,0-.94.48c0-.93.43-1.45,1.17-1.45a1.59,1.59,0,0,1,.78.2Zm-1.27,2c.41,0,.68.31.68.81a.67.67,0,0,1-.67.75.69.69,0,0,1-.68-.77.71.71,0,0,1,.67-.79m3.7-2.1,0,2.17a3.87,3.87,0,0,1,.87-.13c.62,0,1,.32,1,.74s-.36.79-1,.79a2,2,0,0,1-.93-.22v.69a3,3,0,0,0,1,.16c1.08,0,1.74-.57,1.74-1.43s-.54-1.29-1.48-1.29a2.92,2.92,0,0,0-.45.05l0-1h1.74v-.57Z" style="fill:#1d3a66"/></svg>