<svg id="Layer_1" data-name="Layer 1" xmlns="http://www.w3.org/2000/svg" viewBox="0 0 220.65 30"><g id="visa"><path id="Shape" d="M45.48,29.93H1.57A1.56,1.56,0,0,1,0,28.38H0V1.57A1.57,1.57,0,0,1,1.57.07H45.48A1.56,1.56,0,0,1,47,1.57v26.8a1.56,1.56,0,0,1-1.56,1.56Z" style="fill:#fff;fill-rule:evenodd"/><g id="Group"><g id="Shape-2"><polygon id="Path" points="21.64 19.04 19.33 19.04 20.77 10.25 23.07 10.25 21.64 19.04" style="fill:#0a67b2;fill-rule:evenodd"/><path id="Path-2" d="M17.41,10.25l-2.19,6L15,15l-.77-4a1,1,0,0,0-1.09-.79H9.48v.15a8,8,0,0,1,2.4,1l2,7.62h2.39l3.66-8.78H17.41Z" style="fill:#0a67b2;fill-rule:evenodd"/><path d="M35.48,19.07h2.07L35.7,10.28H33.91a1.06,1.06,0,0,0-1.06.66l-3.43,8.13h2.39l.48-1.31h2.92ZM32.94,16l1.21-3.28L34.83,16Z" style="fill:#0a67b2"/><path id="Path-3" d="M29.57,12.37l.33-1.89a7,7,0,0,0-2.07-.41c-1.15,0-3.86.49-3.86,2.9s3.19,2.3,3.19,3.49-2.86,1-3.8.23l-.34,2a6.23,6.23,0,0,0,2.59.5c1.57,0,3.94-.8,3.94-3s-3.21-2.49-3.21-3.48S28.62,11.83,29.57,12.37Z" style="fill:#0a67b2;fill-rule:evenodd"/></g><path id="Shape-3" d="M15,15l-.77-3.93a1,1,0,0,0-1.09-.79H9.48v.15a8.71,8.71,0,0,1,3.41,1.64A6.84,6.84,0,0,1,15,15Z" style="fill:#faa634;fill-rule:evenodd"/></g></g><g id="mastercard"><path id="Shape-4" d="M104.93,28.34a1.59,1.59,0,0,1-1.59,1.59H58.74a1.58,1.58,0,0,1-1.59-1.57h0V1.66A1.58,1.58,0,0,1,58.72.07h44.62a1.58,1.58,0,0,1,1.59,1.57h0Z" style="fill:#fff;fill-rule:evenodd"/><g id="mc_vrt_pos" data-name="mc vrt pos"><rect id="Rectangle-path" x="65.21" y="2.18" width="32.73" height="26.65" style="fill:none"/><g id="Group-2"><path d="M73.31,25.5V24.15a.77.77,0,0,0-.69-.84h-.16a.88.88,0,0,0-.76.38.79.79,0,0,0-.71-.38.75.75,0,0,0-.63.31v-.26H69.9V25.5h.46V24.31a.49.49,0,0,1,.41-.56h.11c.31,0,.47.2.47.56V25.5h.46V24.31a.51.51,0,0,1,.44-.56h.08c.31,0,.46.2.46.56V25.5Zm6.93-2.12h-.76v-.65H79v.65h-.4v.42H79v1c0,.49.2.78.73.78a1.21,1.21,0,0,0,.58-.16l-.13-.4a.8.8,0,0,1-.4.11c-.23,0-.32-.13-.32-.35v-1h.76Zm4-.05a.66.66,0,0,0-.56.31v-.26h-.46V25.5h.46V24.29c0-.36.16-.56.45-.56a.93.93,0,0,1,.29.05l.13-.45h-.31Zm-6,.22a1.57,1.57,0,0,0-.87-.22c-.53,0-.89.27-.89.69s.27.55.74.62h.22c.25,0,.38.11.38.22s-.18.27-.49.27a1.22,1.22,0,0,1-.71-.22l-.23.35a1.58,1.58,0,0,0,.92.27c.62,0,1-.29,1-.69s-.29-.58-.74-.64h-.22c-.2,0-.36-.07-.36-.2s.16-.25.4-.25a1.6,1.6,0,0,1,.67.18Zm12.45-.22a.64.64,0,0,0-.56.31v-.26h-.47V25.5h.42V24.29c0-.36.15-.56.44-.56a.93.93,0,0,1,.29.05l.14-.45h-.26Zm-6,1.11a1.17,1.17,0,0,0,1.23,1.06,1.22,1.22,0,0,0,.66-.25l-.22-.37a1,1,0,0,1-.56.19.62.62,0,0,1-.64-.6v-.08a.66.66,0,0,1,.63-.69h0a.89.89,0,0,1,.56.2l.22-.37a1.16,1.16,0,0,0-1.63.19h0a1.15,1.15,0,0,0-.24.69Zm4.33,0V23.36h-.47v.26a.8.8,0,0,0-.67-.31,1.11,1.11,0,1,0,0,2.22h0a.8.8,0,0,0,.67-.31v.28H89Zm-1.72,0a.65.65,0,0,1,.59-.69h0a.69.69,0,1,1,.1,1.38.7.7,0,0,1-.74-.64Zm-5.6-1.11a1.11,1.11,0,1,0,0,2.22h0a1.31,1.31,0,0,0,.87-.29l-.22-.33a1.09,1.09,0,0,1-.62.22.61.61,0,0,1-.65-.51h1.58v-.18a1,1,0,0,0-.86-1.12h-.1Zm0,.4a.53.53,0,0,1,.54.51H81.08a.57.57,0,0,1,.61-.51Zm11.62.71V22.5h-.47v1.1a.8.8,0,0,0-.67-.31,1.11,1.11,0,1,0,0,2.22h0a.77.77,0,0,0,.67-.31v.3h.47Zm-1.72,0a.65.65,0,0,1,.61-.69h0a.69.69,0,0,1,.6.77.7.7,0,0,1-.6.6.64.64,0,0,1-.62-.62h0ZM76,24.42V23.36h-.47v.26a.8.8,0,0,0-.67-.31,1.11,1.11,0,1,0,0,2.22h0a.77.77,0,0,0,.67-.31v.28H76Zm-1.74,0a.57.57,0,0,1,.6-.54.58.58,0,0,1,.54.6.57.57,0,0,1-1.14,0Z"/><rect id="Rectangle-path-2" x="78.05" y="7.22" width="7.02" height="12.53" style="fill:#ff5f00"/><path d="M78.5,13.5a8,8,0,0,1,3.06-6.27,8,8,0,1,0,0,12.53A7.93,7.93,0,0,1,78.5,13.5Z" style="fill:#eb001b;fill-rule:evenodd"/><path id="Shape-5" d="M94.56,13.5a8,8,0,0,1-13,6.26A8,8,0,0,0,82.87,8.52l0,0a7.87,7.87,0,0,0-1.29-1.29,8,8,0,0,1,13,6.27Z" style="fill:#f79e1b;fill-rule:evenodd"/></g></g></g><g id="paypal"><path id="Stroke-202" d="M219.05,0H174.31a1.6,1.6,0,0,0-1.6,1.6h0V28.4a1.6,1.6,0,0,0,1.6,1.6h44.74a1.6,1.6,0,0,0,1.6-1.6h0V1.6a1.6,1.6,0,0,0-1.6-1.6Z" style="fill:#fff;fill-rule:evenodd"/><path id="Fill-203" d="M204.09,13.66a2.62,2.62,0,0,1-1.54.4h-.3a.37.37,0,0,1-.38-.33.29.29,0,0,1,0-.13l.37-1.59a.63.63,0,0,1,.58-.46h.4a1.91,1.91,0,0,1,1.05.24.81.81,0,0,1,.35.71A1.34,1.34,0,0,1,204.09,13.66Zm2.62-2.44a1.77,1.77,0,0,0-.66-.72,2.82,2.82,0,0,0-1.06-.39,8.73,8.73,0,0,0-1.44-.11H201a.61.61,0,0,0-.59.46l-1.72,7.47a.36.36,0,0,0,.22.45h0a.29.29,0,0,0,.13,0h1.22a.63.63,0,0,0,.59-.47l.41-1.81a.63.63,0,0,1,.58-.46h.35a5.78,5.78,0,0,0,3.48-.92,2.89,2.89,0,0,0,1.24-2.42A2.13,2.13,0,0,0,206.71,11.22Z" style="fill:#3a6387"/><path id="Fill-204" d="M210,16.86a2.7,2.7,0,0,1-.64.36,1.7,1.7,0,0,1-.63.14,1.5,1.5,0,0,1-.69-.14.49.49,0,0,1-.24-.45.93.93,0,0,1,.18-.6,1.23,1.23,0,0,1,.52-.35,3.7,3.7,0,0,1,.8-.18l1-.1Zm-.4,1.64h1.53a.62.62,0,0,0,.58-.47l.89-3.84a.72.72,0,0,1,0-.32V13.6a1.28,1.28,0,0,0-.69-1.21,4.61,4.61,0,0,0-2.17-.39,10.53,10.53,0,0,0-1.48.11c-.49.08-.86.15-1.09.21l-.21,1c-.05.26,0,.47.1.47s.5-.17.9-.28a4.58,4.58,0,0,1,1.1-.17,2.75,2.75,0,0,1,1.1.16.55.55,0,0,1,.37.55.49.49,0,0,1,0,.17v.11a14.3,14.3,0,0,0-1.95.19,5.88,5.88,0,0,0-1.54.43,2.45,2.45,0,0,0-1,.83,2.28,2.28,0,0,0-.35,1.27,1.47,1.47,0,0,0,.5,1.16,1.87,1.87,0,0,0,1.28.44,3.21,3.21,0,0,0,.76-.07,3.16,3.16,0,0,0,.59-.2,2.22,2.22,0,0,0,.5-.28l.46-.3Z" style="fill:#3a6387"/><path id="Fill-205" d="M216.49,10l-1.78,7.87a.62.62,0,0,1-.58.47H213a.36.36,0,0,1-.38-.34h0v-.13l1.63-7.4a.62.62,0,0,1,.58-.47h1.56" style="fill:#3a6387;fill-rule:evenodd"/><path id="Fill-206" d="M182.1,13.66a2.56,2.56,0,0,1-1.54.41h-.3a.36.36,0,0,1-.38-.34V13.6l.37-1.58a.62.62,0,0,1,.58-.47h.4a1.91,1.91,0,0,1,1.05.24.8.8,0,0,1,.34.71A1.35,1.35,0,0,1,182.1,13.66Zm2.61-2.44a1.9,1.9,0,0,0-.66-.72,3.14,3.14,0,0,0-1.06-.38,7,7,0,0,0-1.44-.12H179a.62.62,0,0,0-.58.47l-1.72,7.46a.37.37,0,0,0,.25.46h1.34a.63.63,0,0,0,.59-.47l.41-1.81a.63.63,0,0,1,.58-.46h.35a5.75,5.75,0,0,0,3.47-.92A2.9,2.9,0,0,0,185,12.32,2.33,2.33,0,0,0,184.71,11.22Z" style="fill:#1c3352"/><path id="Fill-207" d="M189,16.87a3.25,3.25,0,0,1-.63.35,1.75,1.75,0,0,1-.64.14,1.49,1.49,0,0,1-.69-.13.47.47,0,0,1-.24-.46,1.08,1.08,0,0,1,.18-.6,1.13,1.13,0,0,1,.52-.34,3.7,3.7,0,0,1,.8-.18l1-.11Zm-.4,1.63h1.53a.62.62,0,0,0,.58-.47l.89-3.84a.72.72,0,0,1,0-.32,1.41,1.41,0,0,0,0-.29,1.28,1.28,0,0,0-.69-1.21,4.61,4.61,0,0,0-2.17-.39,9.23,9.23,0,0,0-1.48.12,10,10,0,0,0-1.09.2l-.2,1c0,.25,0,.47.09.47s.5-.17.9-.29a4.58,4.58,0,0,1,1.1-.17,2.94,2.94,0,0,1,1.1.16.56.56,0,0,1,.37.55.49.49,0,0,1,0,.17v.12a12.87,12.87,0,0,0-1.95.19,5.86,5.86,0,0,0-1.54.42,2.6,2.6,0,0,0-1,.83,2.28,2.28,0,0,0-.35,1.27,1.5,1.5,0,0,0,.5,1.16,1.87,1.87,0,0,0,1.28.44,3.21,3.21,0,0,0,.76-.06,5.89,5.89,0,0,0,.59-.21,2.53,2.53,0,0,0,.51-.28l.45-.3Z" style="fill:#1c3352"/><path id="Fill-208" d="M197.51,12a1,1,0,0,0-.76.46l-2.13,3.7L194,12.5a.62.62,0,0,0-.58-.47h-1.09a.36.36,0,0,0-.38.34v0a.21.21,0,0,0,0,.11l.94,6.1v.34l-1.17,2c-.15.26-.07.47.19.47h1.26a1,1,0,0,0,.76-.47L199.19,12h-1.74" style="fill:#1c3352;fill-rule:evenodd"/></g><path id="Shape-6" d="M162.71,28.34a1.59,1.59,0,0,1-1.59,1.59h-44.6a1.59,1.59,0,0,1-1.59-1.59V1.66A1.58,1.58,0,0,1,116.5.07h44.62a1.58,1.58,0,0,1,1.59,1.57h0v26.7Z" style="fill:#fff;fill-rule:evenodd"/><path d="M135.56,13.67v-.28h1.65v5.48h-1.65v-.29a2.92,2.92,0,0,1-2.25.39,2.84,2.84,0,0,1-1.84-1.31,2.92,2.92,0,0,1,.3-3.45A3,3,0,0,1,135.56,13.67Zm-1.45,1.06a1.42,1.42,0,0,0-1.49,1.37h0a1.48,1.48,0,0,0,2.95,0,1.44,1.44,0,0,0-1.46-1.37Z"/><path d="M154.58,18.89h-1.52a.55.55,0,0,1-.11-.11.67.67,0,0,1,0-.2,2.93,2.93,0,0,1-2.48.33,2.79,2.79,0,0,1-1.54-1.11,2.91,2.91,0,0,1,.14-3.54,3,3,0,0,1,3.83-.6l0-.28h1.65Zm-3.13-4.13A1.43,1.43,0,0,0,150,16.13v0a1.47,1.47,0,0,0,2.94,0,1.41,1.41,0,0,0-1.41-1.42h-.05Z"/><path d="M142.15,13.4h1.65v.54l.34-.3a2.43,2.43,0,0,1,2.48-.15,1.94,1.94,0,0,1,1.21,1.87v3.31c0,.15,0,.21-.21.21h-1.46V16a1.07,1.07,0,0,0-.93-1.2H145a1.14,1.14,0,0,0-1.22,1,.38.38,0,0,0,0,.1v3h-1.65Z"/><path d="M128.17,18.91h-1.85a.75.75,0,0,1-.71-.36c-.78-1.11-1.59-2.19-2.4-3.3a1.11,1.11,0,0,0-.08-.12l.17-.14a13.75,13.75,0,0,0,1.23-1.06,4.37,4.37,0,0,0,1.15-2.85V11h1.79a6.31,6.31,0,0,1-1.85,4.5Z"/><path d="M121.1,11h1.81v7.94H121.1Z"/><path d="M130.38,18.89h-1.65a.52.52,0,0,1-.12-.13c0-.06,0-.09,0-.14V11h1.74Z"/><path d="M141.39,13.39v1.53a9.4,9.4,0,0,0-1,.39,1.2,1.2,0,0,0-.61,1.11V18.7c0,.15,0,.2-.19.2h-1.5V13.4h1.65v.65A2.21,2.21,0,0,1,141.39,13.39Z"/><path d="M157.37,18a1,1,0,1,1-1-1h0A1,1,0,0,1,157.37,18Z"/></svg>